<svg xmlns="http://www.w3.org/2000/svg" width="1080" height="600" viewBox="0 0 1080 600">
  <defs>
    <linearGradient id="bg" x1="0%" y1="0%" x2="100%" y2="100%">
      <stop offset="0%" style="stop-color:#f8fafc;stop-opacity:1"/>
      <stop offset="100%" style="stop-color:#e2e8f0;stop-opacity:1"/>
    </linearGradient>
  </defs>
  <rect width="1080" height="600" fill="url(#bg)" rx="12"/>
  <rect x="40" y="40" width="1000" height="48" rx="8" fill="#7c3aed" opacity="0.08"/>
  <rect x="60" y="52" width="120" height="24" rx="4" fill="#7c3aed" opacity="0.15"/>
  <rect x="40" y="108" width="300" height="452" rx="8" fill="white" stroke="#e2e8f0" stroke-width="1"/>
  <rect x="360" y="108" width="680" height="220" rx="8" fill="white" stroke="#e2e8f0" stroke-width="1"/>
  <rect x="360" y="340" width="330" height="220" rx="8" fill="white" stroke="#e2e8f0" stroke-width="1"/>
  <rect x="710" y="340" width="330" height="220" rx="8" fill="white" stroke="#e2e8f0" stroke-width="1"/>
  <rect x="380" y="140" width="200" height="16" rx="4" fill="#7c3aed" opacity="0.1"/>
  <rect x="380" y="170" width="640" height="120" rx="8" fill="#7c3aed" opacity="0.04"/>
  <rect x="60" y="130" width="260" height="12" rx="4" fill="#7c3aed" opacity="0.12"/>
  <rect x="60" y="158" width="200" height="12" rx="4" fill="#7c3aed" opacity="0.08"/>
  <rect x="60" y="186" width="230" height="12" rx="4" fill="#7c3aed" opacity="0.08"/>
  <rect x="60" y="214" width="180" height="12" rx="4" fill="#7c3aed" opacity="0.08"/>
</svg>
